# xmcd
#
# Track frame offsets:
#	150
#	16780
#	32871
#	46415
#	58898
#	72237
#	85454
#	101208
#	113963
#	125233
#	139557
#	154524
#	166303
#	181934
#	199081
#
# Disc length: 2882 seconds
#
# Revision: 0
# Processed by: cddbd v1.5.1PL2 Copyright (c) Steve Scherf et al.
# Submitted via: EasyCDDAExtractor 4.6.9.1
#
DISCID=d30b400f
DTITLE=Emmylou Harris - Nashville Country Duets With Carl Jackson
DYEAR=1993
DGENRE=Country
TTITLE0=Gone, Gone, Gone
TTITLE1=To Keep Your Memory Green
TTITLE2=Under Your Spell Again
TTITLE3=Walk Through This World With Me
TTITLE4=I'll Never Love Another
TTITLE5=Something Draws Me To You
TTITLE6=When My Blue Moon Turns To Gold Again
TTITLE7=You Made A Memory Of Me
TTITLE8=I Take The Chance
TTITLE9=Before I Met You
TTITLE10=I've Always Needed You
TTITLE11=We Must Have Been Out Of Our Miinds
TTITLE12=Dying On Sorrow's Wine
TTITLE13=The Best We Could Do
TTITLE14=Nobody's Darling But Mine
EXTD=
EXTT0=
EXTT1=
EXTT2=
EXTT3=
EXTT4=
EXTT5=
EXTT6=
EXTT7=
EXTT8=
EXTT9=
EXTT10=
EXTT11=
EXTT12=
EXTT13=
EXTT14=
PLAYORDER=
